<svg xmlns="http://www.w3.org/2000/svg" width="192" height="40" viewBox="0 0 192 40" fill="none">
  <rect x="1" y="4" width="32" height="32" rx="8" fill="#2563eb"/>
  <path d="M9 14h16M9 20h10M9 26h16" stroke="#f8fafc" stroke-width="2.5" stroke-linecap="round"/>
  <circle cx="27" cy="20" r="3" fill="#fbbf24"/>
  <path d="M46 28V12h9.2c5.2 0 7.4 2.1 7.4 5.2 0 2.2-1.2 3.8-3.4 4.5 2.8.6 4.3 2.2 4.3 5 0 3.4-2.5 5.3-7.7 5.3H46Zm4.1-9.4v5.9h5.1c2 0 3.2-.9 3.2-2.8 0-2.1-1.4-3.1-4.1-3.1h-4.2Zm0-3.1h4.4c2.3 0 3.6-.8 3.6-2.5 0-1.7-1.2-2.5-3.5-2.5h-4.5v5Z" fill="#0f172a"/>
  <path d="M66.1 28V12h4.1v16h-4.1Z" fill="#0f172a"/>
  <path d="M74.7 28V12h4.1v12.6h8.4V28H74.7Z" fill="#0f172a"/>
  <path d="M90.2 28V12h4.1v12.6h8.4V28H90.2Z" fill="#0f172a"/>
  <path d="M105.3 28V12h12.4v3.4h-8.3v2.9h7.4v3.2h-7.4v3h8.5V28h-12.6Z" fill="#0f172a"/>
  <path d="M121.2 28V12h8c5.1 0 7.7 2.1 7.7 6.3 0 3.1-1.4 5.1-4.2 6l4.4 3.7h-6.1l-3.6-3.2h-2V28h-4.2Zm4.2-6.2h3.4c2.5 0 3.8-1 3.8-3.1 0-2.1-1.3-3.2-3.8-3.2h-3.4v6.3Z" fill="#0f172a"/>
  <path d="M139.7 28V12h12.3v3.4h-8.2v3.2h7.2v3.3h-7.2V28h-4.1Z" fill="#0f172a"/>
</svg>
